<?xml version="1.0" encoding="UTF-8"?>
<svg id="Layer_1" data-name="Layer 1" xmlns="http://www.w3.org/2000/svg" xmlns:xlink="http://www.w3.org/1999/xlink" viewBox="0 0 1061.8 539.18">
  <defs>
    <style>
      .cls-1 {
        fill: url(#linear-gradient);
      }
    </style>
    <linearGradient id="linear-gradient" x1="3.51" y1="269.59" x2="1065.31" y2="269.59" gradientUnits="userSpaceOnUse">
      <stop offset="0" stop-color="#603d15"/>
      <stop offset="1" stop-color="#ffeb9b"/>
    </linearGradient>
  </defs>
  <path class="cls-1" d="M890.16,439.69c-34.07,0-66.49-12.84-91.3-36.16-24.35-22.89-39.1-53.69-41.64-86.87h-.02s-.09-1.4-.09-1.4c0,0,0,0,0-.01l-.09-1.42h0s0-.01,0-.02l-.08-1.41,4.65-.26.08,1.41c.02.36.04.71.07,1.07l.02.31c4.45,67.34,60.85,120.09,128.4,120.09,70.96,0,128.7-57.73,128.7-128.69,0-65.02-48.6-119.94-113.05-127.75h-.01c-.45-.06-.91-.11-1.36-.16l-1.41-.15.51-4.64,1.41.16s.01,0,.02,0h0s1.37.16,1.37.16c.01,0,.03,0,.04,0l1.41.17h0c66.09,8.73,115.75,65.31,115.75,132.21,0,73.54-59.83,133.36-133.36,133.36ZM798.89,313.9l.14,1.41s0,.03,0,.05l.13,1.36h.03c2.49,21.98,12.83,42.27,29.26,57.27,16.9,15.42,38.81,23.91,61.7,23.91,50.5,0,91.58-41.08,91.58-91.58,0-43.87-30.98-81.41-73.85-89.81v-.03s-1.91-.35-1.91-.35c-.07-.01-.13-.02-.2-.03l-.68-.12h0s-.03,0-.05,0l-1.4-.23-.75,4.61,1.4.23c.16.03.32.06.48.08l.89.16c41.37,7.46,71.4,43.42,71.4,85.5,0,47.92-38.99,86.91-86.91,86.91-44.94,0-82.12-33.68-86.48-78.35v-.02c-.02-.2-.04-.4-.05-.61l-.16-2.18-4.65.38.11,1.44h-.03ZM777.97,313.86h0s.07.86.07.86c0,.08.01.15.02.23l.14,1.73h.01c2.52,27.58,15.08,53.13,35.46,72.07,20.85,19.37,48.01,30.04,76.49,30.04,62.02,0,112.47-50.45,112.47-112.47,0-27.2-9.84-53.44-27.7-73.91-17.38-19.91-41.17-33.04-67.11-37.14v-.03s-1.4-.2-1.4-.2c-.02,0-.03,0-.05,0l-1.35-.2v.02s-1.44-.18-1.44-.18l-.61,4.62,2.01.25c.26.03.52.06.77.1h.06c52.54,7.65,92.15,53.49,92.15,106.66,0,59.44-48.36,107.8-107.8,107.8-55.86,0-103.05-43.58-107.43-99.22h0s-.04-.52-.04-.52c-.02-.28-.05-.57-.06-.85l-.09-1.41-4.66.3.09,1.42s0,.01,0,.02ZM840.98,314.12h-.01s.26,1.39.26,1.39c0,0,0,0,0,.01l.25,1.38h.04c4.93,22.8,25.16,39.21,48.64,39.21,27.45,0,49.79-22.34,49.79-49.79,0-20.53-12.71-39-31.76-46.41v-.03s-1.33-.48-1.33-.48c0,0-.01,0-.02,0l-1.32-.47v.02c-.05-.01-.09-.03-.14-.04l-1.35-.44-1.43,4.45,1.35.43c.45.14.89.29,1.33.45h0c17.93,6.39,29.98,23.48,29.98,42.51,0,24.88-20.24,45.12-45.12,45.12-21.71,0-40.36-15.47-44.34-36.79l-.06-.3c-.07-.35-.13-.69-.18-1.04l-.22-1.4-4.61.72.22,1.4s0,.05.01.08ZM819.9,313.98h0l.07.53c.02.14.03.29.05.43l.05.39v.05s0,0,0,0l.18,1.4h.03c5.11,34.43,34.89,60.22,69.87,60.22,38.97,0,70.68-31.71,70.68-70.68,0-32.37-21.66-60.28-52.84-68.38v-.03s-1.37-.33-1.37-.33c0,0-.02,0-.03,0l-1.35-.32h0s-.05,0-.07,0l-1.38-.3-.99,4.56,1.39.3c.43.09.85.19,1.27.29l.08.02c29.81,7.12,50.63,33.51,50.63,64.19,0,36.4-29.61,66.02-66.02,66.02-33.11,0-61.25-24.74-65.46-57.55l-.13-1.04c-.01-.11-.03-.21-.04-.32l-.15-1.41-4.64.5.15,1.41s0,.03,0,.05ZM719.9,314.97l-.07-1.42-4.66.23.07,1.42c2.46,49.27,25.76,95.46,63.93,126.7l.39.32h7.48l-3.17-2.53c-38.22-30.46-61.53-75.92-63.97-124.73ZM1019.24,187.95c-29.52-32.17-69.63-52.06-112.94-56.02l-1.41-.13-.43,4.65,1.41.13c88.23,8.07,154.77,81.04,154.77,169.75s-75.24,168.96-167.71,170.44l-1.39.02v4.67l1.44-.02c46.12-.73,89.41-19.29,121.9-52.26,32.52-33.01,50.43-76.64,50.43-122.85s-16.36-86.01-46.07-118.38ZM1039.75,306.32c0,80.99-65.86,148.08-146.82,149.55l-1.39.03v4.67l1.44-.03c40.55-.73,78.59-17.11,107.13-46.13,28.57-29.05,44.31-67.44,44.31-108.09,0-38.38-14.19-75.17-39.95-103.58-25.26-27.86-59.57-45.46-96.73-49.67v-.02s-1.33-.14-1.33-.14c-.02,0-.05,0-.07,0l-1.41-.15h0s-1.43-.12-1.43-.12l-.44,4.65,3.28.32c76.1,8.17,133.42,72.02,133.42,148.71ZM740.83,314.95v-.02s-.02-.39-.02-.39c-.02-.33-.04-.65-.05-.98l-.07-1.42-4.66.23.07,1.42s0,0,0,0h0l.08,1.41s0,0,0,.01l.08,1.41h.03c1.73,26.13,10.11,51.49,24.31,73.41,14.06,21.71,33.52,39.69,56.28,52l.32.17h10.17l-5.23-2.68c-47.14-24.13-78.29-71.87-81.29-124.59ZM607.47,523.16l-4.61,15.25,13.08-9.1,13.08,9.1-4.61-15.25,12.7-9.63-15.93-.32-5.23-15.05-5.23,15.05-15.93.32,12.7,9.63ZM552.41,523.16l-4.61,15.25,13.08-9.1,13.08,9.1-4.61-15.25,12.7-9.63-15.93-.32-5.23-15.05-5.23,15.05-15.93.32,12.7,9.63ZM662.53,523.16l-4.61,15.25,13.08-9.1,13.08,9.1-4.61-15.25,12.7-9.63-15.93-.32-5.23-15.05-5.23,15.05-15.93.32,12.7,9.63ZM171.96,186.08c-.81.51-1.21,1.72-1.21,3.63,0,2.02.3,3.18.91,3.48.51.4,1.36.61,2.57.61h22.56v-8.02h-22.56c-.91,0-1.67.1-2.27.3ZM238.23,311.49h31.07l-26.99,168.02h-31.57l-9.68-84.16c0-2.17-2.03-3.1-5.6-3.1s-5.08.92-5.6,3.1l-10.69,84.16h-31.57l-24.94-168.02h30.54l8.15,84.47c0,2.17,2.05,3.1,5.61,3.1s5.6-.92,5.6-3.1l8.15-84.47h30.04l7.63,84.47c0,2.17,2.05,3.1,5.61,3.1s5.08-.92,5.08-3.1l9.16-84.47ZM363.01,315.2c-5.1-3.4-19.35-4.94-42.76-4.94-16.81,0-28,1.55-33.61,4.94-5.6,3.1-8.15,9.9-8.15,20.12v29.39h33.61v-30.32c0-6.82,4.07-10.21,12.73-10.21s12.73,3.4,12.73,10.21v40.84l-34.63,12.69c-11.2,4.02-18.33,7.73-20.87,11.14-2.54,2.78-3.56,9.28-3.56,19.8v38.98c0,15.47,9.68,23.21,28.52,23.21,6.11,0,16.29-3.41,30.55-10.21v8.67h33.09v-136.77c0-15.17-2.55-24.14-7.63-27.55ZM337.55,454.14c0,8.35-4.08,12.37-12.73,12.37s-12.73-4.02-12.73-11.75v-45.8c0-2.47.5-4.33,2.03-5.88,1.02-1.55,8.65-4.94,23.42-10.21v61.27ZM777.16,88.25h-10.25v-28.82c0-1.55.26-2.64.77-3.29.39-.77,1.87-1.16,4.45-1.16,2.45,0,4,.52,4.64,1.55.26.77.39,1.74.39,2.9v28.82ZM504.06,131.77v-27.66c0-.77.19-1.55.58-2.32.39-.51,1.87-1.29,4.45-2.32.9-.26,1.77-.48,2.61-.68.84-.19,1.71-.42,2.61-.68v33.27c0,1.68-.19,2.9-.58,3.68-.52,1.29-2.06,1.93-4.64,1.93-3.35,0-5.03-1.74-5.03-5.22ZM481.65,333.45v43.33h-30.54v-39.92c0-7.74-4.08-11.76-12.23-11.76-8.66,0-13.24,4.02-13.24,12.08v142.34h-33.09v-168.02h31.57v9.9c13.74-7.12,23.42-10.84,30.04-10.84,18.33,0,27.49,7.74,27.49,22.9ZM694,337.17v27.22h-33.1v-29.39c0-7.43-4.07-11.14-12.73-11.14s-13.24,3.71-13.24,10.83v30.64c0,5.57,1.03,9.59,2.55,12.06,1.53,1.86,5.6,4.02,12.23,6.19l25.96,8.35c12.23,4.02,18.34,11.14,18.34,21.67v41.45c0,10.21-2.55,17.02-8.15,20.43-5.6,3.4-16.81,5.26-33.6,5.26-21.39,0-35.13-1.55-41.76-4.33-6.1-3.1-9.16-9.9-9.16-20.41v-34.04h33.6v35.28c0,6.49,4.58,9.9,13.24,9.9s12.73-3.41,12.73-9.9v-39.61c0-4.65-.5-7.74-2.03-9.29-2.03-1.85-4.58-3.4-7.64-4.94-.5-.31-3.05-.94-7.63-2.47l-23.42-8.06c-7.63-2.78-13.24-6.18-15.78-10.21-2.05-3.08-3.06-8.04-3.06-14.85v-25.69c0-14.24,2.55-22.9,8.15-26.3,5.61-3.41,19.35-5.27,40.23-5.27,18.33,0,30.04,1.55,35.64,4.96,5.6,3.41,8.66,10.83,8.66,21.67ZM331.15,172.93v41.1c0,2.21-2.56,3.31-7.66,3.31-1.51,0-2.5-.06-2.96-.17v-49.28h3.83c2.67,0,4.35.17,5.05.52,1.16.47,1.74,1.97,1.74,4.53ZM31,273.12L3.51,479.51h38.69l4.59-47.65h30.54l3.56,47.65h38.7l-23.42-206.39H31ZM47.81,415.15l7.12-85.72,2.55-27.23c0-2.16,2.05-3.08,5.61-3.08s5.6.92,5.6,3.08c.5,3.41,1.02,5.88,1.02,7.74v3.4l7.13,101.82h-29.02ZM884.77,12.04v267.49c0,6.95-5.64,12.59-12.59,12.59h-288.68v187.39h-33.61v-8.67c-13.74,6.81-24.44,10.21-32.07,10.21-17.82,0-26.99-8.04-26.99-24.14v-124.71c0-13.92,9.16-20.73,27.5-20.73,6.62,0,16.79,3.4,31.56,10.51v-29.88H132.19c-6.95,0-12.59-5.64-12.59-12.59V12.04c0-6.95,5.64-12.59,12.59-12.59h740c6.95,0,12.59,5.64,12.59,12.59ZM549.89,336.86c0-7.12-4.07-10.84-12.21-10.84-8.66,0-13.24,3.41-13.24,10.53v118.82c0,7.43,4.08,11.14,12.73,11.14s12.73-3.71,12.73-11.14v-118.51ZM818.55,148.6h33.66V19.59h-33.66v129.01ZM733.45,131.77c0,7.61,2.58,12.45,7.74,14.51,5.42,2.19,16.7,3.29,33.85,3.29,14.05,0,23.53-1.29,28.43-3.87,4.9-2.32,7.35-7.16,7.35-14.51v-21.08h-33.66v22.44c0,2.19-.26,3.55-.77,4.06-.52.52-1.81.77-3.87.77-2.71,0-4.32-.45-4.84-1.35-.52-.51-.77-1.67-.77-3.48v-32.49h43.91v-38.1c0-8.12-2.45-13.35-7.35-15.67-4.77-2.32-15.8-3.48-33.08-3.48-14.57,0-24.37,1.23-29.4,3.68-5.03,2.45-7.54,7.22-7.54,14.31v70.99ZM646.41,148.6h33.66V60.21c0-2.96,1.87-4.45,5.61-4.45,3.35,0,5.03,1.42,5.03,4.26v88.59h33.66V57.11c0-9.28-8.38-13.93-25.14-13.93-6.58,0-12.96,1.29-19.15,3.87v-3.48h-33.66v105.03ZM558.21,148.6h33.66V60.21c0-2.96,1.87-4.45,5.61-4.45,3.35,0,5.03,1.42,5.03,4.26v88.59h33.66V57.11c0-9.28-8.38-13.93-25.14-13.93-6.58,0-12.96,1.29-19.15,3.87v-3.48h-33.66v105.03ZM470.4,133.71c0,10.57,8.51,15.86,25.53,15.86,5.29,0,11.41-1.29,18.37-3.87v2.9h33.07v-84.33c0-9.54-2.32-15.54-6.96-17.99-4.38-2.32-15.93-3.48-34.62-3.48-13.93,0-23.34,1.16-28.24,3.48-4.77,2.32-7.16,6.84-7.16,13.54v19.73h33.66v-20.31c0-2.83,1.67-4.26,5.03-4.26s5.22,1.42,5.22,4.26v23.6l-23.98,7.16c-9.03,2.71-14.64,5.16-16.83,7.35-2.06,2.06-3.09,6.32-3.09,12.77v23.6ZM384.72,148.6h33.27V60.59c0-3.22,1.8-4.84,5.42-4.84s5.61,1.74,5.61,5.22v87.62h33.27V61.75c0-6.7-1.87-11.54-5.61-14.51-3.61-2.83-9.99-4.25-19.15-4.25-6.45,0-12.96,1.29-19.54,3.87v-27.27h-33.27v129.01ZM170.75,124c0-2.62.91-3.94,2.73-3.94h21.96v-26.35h-20.9c-5.35,0-8.88,2.07-10.6,6.21-1.72,4.24-2.57,12.72-2.57,25.44s.96,19.94,2.88,23.47c1.92,3.63,6.06,5.45,12.42,5.45h53.45c6.06,0,9.99-1.92,11.81-5.75,1.82-3.84,2.73-12.21,2.73-25.14s-.96-20.34-2.88-24.08c-1.92-3.73-6.06-5.6-12.42-5.6h-20.59v26.35h23.02c1.01,0,1.82.15,2.42.45.61.3.91,1.46.91,3.48s-.4,3.13-1.21,3.63c-.5.3-1.26.45-2.27.45h-57.84c-2.02,0-3.03-1.36-3.03-4.09ZM143.04,87.97h101v-26.04h-68.9c-2.52,0-3.79-1.41-3.79-4.24s1.36-4.39,4.09-4.39h68.59v-26.04h-67.99c-5.25,0-9.03,1.46-11.36,4.39-2.22,2.83-3.33,7.82-3.33,14.99,0,5.05,1.01,10.15,3.03,15.29h-21.35v26.04ZM244.18,234.23l-.15-11.36h-9.09v2.27c0,2.52-.05,3.94-.15,4.24-.2.81-.53,1.49-.98,2.04-.45.56-1.08.83-1.89.83h-60.42v-9.39h-9.39v9.39h-19.08v25.89h19.08v6.06h9.39v-6.06h57.09c6.16,0,10.3-1.61,12.42-4.85,2.22-3.43,3.28-9.79,3.18-19.08ZM244.79,187.45c0-11-1.01-18.42-3.03-22.26-1.82-3.84-5.6-5.75-11.36-5.75h-16.5v26.35h17.56c1.72,0,2.78.2,3.18.61.4.4.61,1.41.61,3.03,0,2.12-.35,3.38-1.06,3.79-.4.4-1.31.61-2.73.61h-25.44v-34.37h-29.83c-6.36,0-10.45,1.92-12.27,5.75-1.82,3.74-2.73,12.37-2.73,25.89,0,11.41.96,19.08,2.88,23.02,1.92,3.94,5.65,5.91,11.21,5.91h55.57c5.96,0,9.74-2.02,11.36-6.06,1.72-4.24,2.57-13.07,2.57-26.5ZM265.29-.55h-3.03v292.67h3.03V-.55ZM285.11,121.52c0,9.16.84,15.35,2.51,18.57,1.93,3.74,6.25,6.32,12.96,7.74,5.93,1.03,16.37,1.55,31.33,1.55,16.89,0,28.24-1.42,34.04-4.26,5.93-2.71,8.9-7.93,8.9-15.67v-35.2h-38.68v35.78c0,1.42-.19,2.51-.58,3.29-.65,1.42-2.58,2.13-5.8,2.13-4,0-6-1.61-6-4.84V36.8c0-2.84,2.13-4.26,6.38-4.26,4,0,6,1.42,6,4.26v27.47h38.68v-22.63c0-9.8-2.71-16.05-8.12-18.76-5.42-2.71-17.6-4.06-36.56-4.06s-31.85,1.42-37.14,4.25c-5.29,2.71-7.93,9.03-7.93,18.96v79.49ZM365.98,211.77v-37.96c0-7.55-2.61-12.42-7.84-14.63-5.34-2.32-16.37-3.48-33.09-3.48h-39.53v116.16h35v-42.32c2.32,0,4.27-.03,5.83-.09,1.57-.06,2.64-.09,3.22-.09,14.98-.23,24.79-1.45,29.43-3.66,4.64-2.2,6.97-6.85,6.97-13.93ZM452.7,271.85l-16.72-116.16h-51.72l-19.68,116.16h34.48l3.13-25.95h13.76l2.26,25.95h34.48ZM537.16,175.02c0-8.47-2.5-13.82-7.49-16.02-4.88-2.2-17.07-3.31-36.57-3.31h-36.05v116.16h34.13v-50.15h2.26c3.6,0,5.8.17,6.62.52,1.51.7,2.26,2.38,2.26,5.05v44.58h34.83v-39.18c0-6.04-1.05-10.16-3.13-12.36-1.98-2.44-6.27-4.41-12.89-5.92,6.73-1.74,11.15-3.71,13.24-5.92,1.86-2.2,2.79-6.21,2.79-12.02v-21.42ZM606.65,155.69h-65.83v12.19h16.02v103.97h34.13v-103.97h15.67v-12.19ZM695.29,155.69h-30.65v55.73l-17.59-55.73h-35.7v116.16h30.65v-59.73l17.76,59.73h35.53v-116.16ZM763.38,155.69h-54.16v116.16h54.16v-12.54h-19.68v-44.58h19.68v-12.54h-19.68v-33.96h19.68v-12.54ZM852.72,175.02c0-8.47-2.5-13.82-7.49-16.02-4.88-2.2-17.07-3.31-36.57-3.31h-36.05v116.16h34.13v-50.15h2.26c3.6,0,5.8.17,6.62.52,1.51.7,2.26,2.38,2.26,5.05v44.58h34.83v-39.18c0-6.04-1.05-10.16-3.13-12.36-1.98-2.44-6.27-4.41-12.89-5.92,6.73-1.74,11.15-3.71,13.24-5.92,1.86-2.2,2.79-6.21,2.79-12.02v-21.42ZM817.89,172.41v29.26c0,2.55-.64,4.12-1.91,4.7-.81.47-2.73.7-5.75.7h-3.48v-39.18h3.48c2.55,0,4.29.12,5.23.35,1.62.58,2.44,1.98,2.44,4.18ZM502.33,172.41v29.26c0,2.55-.64,4.12-1.91,4.7-.81.47-2.73.7-5.75.7h-3.48v-39.18h3.48c2.55,0,4.29.12,5.23.35,1.62.58,2.44,1.98,2.44,4.18ZM411.43,188.26l3.83,44.93h-11.84l4.53-44.93,1.92-14.8c.23,1.74.41,3.11.52,4.09.11.99.17,1.6.17,1.83,0-.11.09.58.26,2.09.17,1.51.38,3.77.61,6.79ZM746.71,539.36v-12.85h-18.75l16.3-29.77c1.63-3.09,2.45-6.42,2.45-10.01v-12.97c0-7.54-1.28-12.48-3.96-14.58-2.21-1.73-7.22-2.59-15.14-2.59-4.89,0-8.38.25-10.48.74-2.79.62-4.77,1.73-6.05,3.46-1.28,1.61-1.86,4.82-1.86,9.51v15.57h16.07v-11.49c0-2.72.82-4.08,2.45-4.08,1.51,0,2.33,1.36,2.33,4.08v10.13c0,1.85-.82,4.2-2.33,7.17l-18.51,34.84v12.85h37.49ZM790.14,522.56v-48.8c0-7.54-1.05-12.23-3.26-14.21-2.21-1.98-7.45-2.96-15.6-2.96s-13.51.99-15.6,2.96c-2.1,1.98-3.14,6.67-3.14,14.21v48.8c0,7.66,1.16,12.35,3.38,14.33,2.1,1.85,7.33,2.84,15.49,2.84s13.51-.99,15.6-2.97c2.1-1.85,3.14-6.67,3.14-14.21ZM773.72,523.67c0,1.73-.82,2.47-2.33,2.47-1.63,0-2.45-1.36-2.45-3.95v-49.42c0-1.61.82-2.47,2.45-2.47,1.51,0,2.33,1.36,2.33,4.08v49.29ZM834.03,539.36v-12.85h-18.75l16.3-29.77c1.63-3.09,2.45-6.42,2.45-10.01v-12.97c0-7.54-1.28-12.48-3.96-14.58-2.21-1.73-7.22-2.59-15.14-2.59-4.89,0-8.38.25-10.48.74-2.79.62-4.77,1.73-6.05,3.46-1.28,1.61-1.86,4.82-1.86,9.51v15.57h16.07v-11.49c0-2.72.82-4.08,2.45-4.08,1.51,0,2.33,1.36,2.33,4.08v10.13c0,1.85-.81,4.2-2.33,7.17l-18.51,34.84v12.85h37.49ZM877.46,522.56v-17.17c0-10.62-4.08-15.94-12.23-15.94-3.96,0-6.87,1.24-8.97,3.83v-18.9c0-2.72.82-4.08,2.33-4.08,1.63,0,2.44,1.36,2.44,4.08v11.24h16.42v-11.86c0-7.54-1.16-12.23-3.38-14.21-2.21-1.98-7.34-2.96-15.49-2.96s-13.51.99-15.6,2.96c-2.1,1.98-3.14,6.67-3.14,14.21v48.8c0,7.54,1.16,12.35,3.26,14.21,2.21,1.98,7.34,2.97,15.6,2.97s13.51-.99,15.6-2.97c2.1-1.85,3.14-6.67,3.14-14.21ZM861.04,523.67c0,1.73-.81,2.47-2.33,2.47-1.63,0-2.45-1.36-2.45-4.08v-14.83c0-1.73.82-2.47,2.33-2.47,1.63,0,2.44,1.24,2.44,3.95v14.95Z"/>
</svg>